<svg width="36" height="36" viewBox="0 0 36 36" fill="none" xmlns="http://www.w3.org/2000/svg">
<g clip-path="url(#clip0_5912_723)">
<path fill-rule="evenodd" clip-rule="evenodd" d="M25.9396 0.285889H10.3343C2.97721 0.285889 0.285477 2.97762 0.285477 10.3348V25.9513C0.285477 33.3084 2.97721 36.0002 10.3343 36.0002H25.9396C33.2968 36.0002 35.9922 33.3084 35.9922 25.9513V10.3348C35.9998 2.97762 33.308 0.285889 25.9396 0.285889Z" fill="#C8102E"/>
<path d="M7.3569 18.1429H8.30426V22.8159H7.3569V20.9174H5.2178V22.8159H4.27043V18.1429H5.2178V20.0226H7.3569V18.1429ZM12.6952 20.8159C12.6952 21.5678 12.3193 21.9813 11.6351 21.9813C10.9509 21.9813 10.5674 21.5678 10.5674 20.7745V18.1429H9.62005V20.8121C9.62005 22.1241 10.3494 22.876 11.6201 22.876C12.8907 22.876 13.6426 22.1241 13.6426 20.7708V18.1429H12.6952V20.8159ZM23.6426 21.3535L22.5825 18.1429H21.8043L20.7516 21.3572L19.7178 18.1429H18.7103L20.3381 22.8159H21.1238L22.1802 19.7482L23.2403 22.8159H24.0336L25.6614 18.1429H24.6764L23.6426 21.3535ZM27.3569 20.8008H29.0825V19.955H27.3569V19.0001H29.8606V18.1429H26.4246V22.8046H29.9509V21.9625H27.3569V20.8008ZM31.0787 22.8046H32.0148V18.1429H31.0787V22.8046ZM15.5148 21.8384L15.09 22.8084H14.1238L16.1652 18.1429H16.9998L19.0486 22.8084H18.0712L17.6689 21.8422L15.5148 21.8384ZM15.8682 20.9963H17.293L16.5787 19.3272L15.8682 20.9963Z" fill="white"/>
<path d="M18.1426 12.1996C16.5666 12.1986 15.0554 11.5721 13.941 10.4576C12.8266 9.34322 12.2 7.83202 12.199 6.25598H13.0374C13.0374 7.60998 13.5753 8.90852 14.5327 9.86595C15.4901 10.8234 16.7886 11.3612 18.1426 11.3612C19.4966 11.3612 20.7952 10.8234 21.7526 9.86595C22.71 8.90852 23.2479 7.60998 23.2479 6.25598H24.0863C24.0853 7.83202 23.4587 9.34322 22.3443 10.4576C21.2299 11.5721 19.7187 12.1986 18.1426 12.1996Z" fill="white"/>
</g>
<defs>
<clipPath id="clip0_5912_723">
<rect width="36" height="36" fill="white"/>
</clipPath>
</defs>
</svg>
