<svg width="133" height="40" viewBox="0 0 133 40" fill="none" xmlns="http://www.w3.org/2000/svg">
<circle cx="30.7798" cy="10.2192" r="2.10239" transform="rotate(-15 30.7798 10.2192)" fill="#12282F"/>
<path d="M21.4281 10.3609H16.8953C16.5499 10.3609 16.2477 10.5335 16.1182 10.8789L10.981 24.8659L5.80064 10.8789C5.67114 10.5335 5.36895 10.3609 5.02359 10.3609H0.577103C0.102236 10.3609 -0.113613 10.6199 0.0590663 11.0948L8.21815 31.5572L5.1531 38.9824C4.93725 39.4573 5.19627 39.7163 5.67114 39.7163H9.98811C10.3335 39.7163 10.6357 39.5436 10.7652 39.1983L21.9461 11.0948C22.1188 10.6199 21.903 10.3609 21.4281 10.3609Z" fill="#12282F"/>
<path d="M132.545 30.7369L123.825 19.1242L131.293 11.1378C131.682 10.7493 131.509 10.3607 130.948 10.3607H125.983C125.681 10.3607 125.422 10.4471 125.206 10.7061L117.436 19.081V0.647546C117.436 0.259018 117.177 0 116.788 0H112.385C111.996 0 111.737 0.259018 111.737 0.647546V30.8664C111.737 31.2549 111.996 31.5139 112.385 31.5139H116.788C117.177 31.5139 117.436 31.2549 117.436 30.8664V25.945L120.371 22.8368L126.631 31.1254C126.847 31.4276 127.063 31.5139 127.408 31.5139H132.157C132.675 31.5139 132.847 31.1686 132.545 30.7369Z" fill="#12282F"/>
<path d="M107.207 10.3612H103.235C102.847 10.3612 102.631 10.6202 102.588 11.0088L102.458 12.9946C100.861 11.1814 98.7026 9.88635 96.026 9.88635C90.1118 9.88635 85.7948 14.8077 85.7948 20.981C85.7948 27.1543 90.1118 32.0756 96.026 32.0756C98.7889 32.0756 100.904 30.8237 102.415 29.0537L102.588 30.8669C102.631 31.2554 102.847 31.5144 103.235 31.5144H107.207C107.596 31.5144 107.855 31.2554 107.855 30.8669V11.0088C107.855 10.6202 107.596 10.3612 107.207 10.3612ZM96.7168 26.8952C93.5654 26.8952 91.2774 24.3482 91.2774 20.9378C91.2774 17.5706 93.5654 15.0667 96.7168 15.0667C99.825 15.0667 102.113 17.7433 102.113 20.9378C102.113 24.1324 99.825 26.8952 96.7168 26.8952Z" fill="#12282F"/>
<path d="M74.6261 9.88635C71.1725 9.88635 68.6686 11.5268 67.1577 13.8148C65.8194 11.2678 63.4451 9.88635 60.6391 9.88635C57.574 9.88635 55.3292 11.57 53.9477 13.8148V13.7716L53.7751 11.0088C53.7319 10.6202 53.516 10.3612 53.1275 10.3612H48.8969C48.5083 10.3612 48.2493 10.6202 48.2493 11.0088V30.8669C48.2493 31.2554 48.5083 31.5144 48.8969 31.5144H53.3002C53.6887 31.5144 53.9477 31.2554 53.9477 30.8669V19.2974C53.9477 18.3045 55.4155 15.1531 58.6101 15.1531C60.6822 15.1531 62.5817 16.3618 62.5817 19.8586V30.8669C62.5817 31.2554 62.8407 31.5144 63.2292 31.5144H67.6326C68.0211 31.5144 68.2801 31.2554 68.2801 30.8669V19.211C68.2801 17.7001 69.7479 15.1531 72.9424 15.1531C74.9714 15.1531 76.8709 16.3618 76.8709 19.8586V30.8669C76.8709 31.2554 77.1299 31.5144 77.5184 31.5144H81.9217C82.3103 31.5144 82.5693 31.2554 82.5693 30.8669V18.8225C82.5693 13.1673 79.2452 9.88635 74.6261 9.88635Z" fill="#12282F"/>
<path d="M30.7806 10.2194C25.3389 11.6775 21.984 17.0365 22.9184 22.4816C22.9725 22.797 22.9996 22.9546 23.0988 23.0802C23.1811 23.1843 23.3153 23.2703 23.4443 23.3014C23.5999 23.339 23.7683 23.2939 24.1051 23.2036L43.0539 18.1264C43.3907 18.0361 43.5591 17.991 43.675 17.8806C43.7712 17.7892 43.8444 17.6476 43.8636 17.5163C43.8868 17.3579 43.8314 17.2078 43.7206 16.9077C41.8072 11.7248 36.2224 8.76132 30.7806 10.2194Z" fill="#12282F"/>
<path d="M42.0738 25.5691C42.3757 25.7433 42.5266 25.8305 42.61 25.9672C42.6792 26.0805 42.7133 26.2365 42.6978 26.3683C42.679 26.5273 42.5867 26.6575 42.4021 26.918C41.5033 28.1861 40.3393 29.2489 38.9864 30.03C37.3424 30.9792 35.4776 31.4788 33.5793 31.4788C31.6811 31.4788 29.8163 30.9792 28.1723 30.03C26.8194 29.2489 25.6554 28.1861 24.7566 26.918C24.572 26.6575 24.4797 26.5273 24.4609 26.3683C24.4454 26.2365 24.4795 26.0805 24.5486 25.9672C24.6321 25.8305 24.783 25.7433 25.0849 25.5691L27.3939 24.236C27.6963 24.0614 27.8475 23.9741 27.9814 23.9604C28.1134 23.947 28.2059 23.9638 28.3248 24.0229C28.4453 24.0828 28.5757 24.2415 28.8363 24.559C29.3029 25.1272 29.8695 25.6091 30.5109 25.9795C31.4438 26.5181 32.5021 26.8017 33.5793 26.8017C34.6566 26.8017 35.7149 26.5181 36.6478 25.9795C37.2892 25.6091 37.8558 25.1272 38.3224 24.559C38.583 24.2415 38.7133 24.0828 38.8339 24.0229C38.9527 23.9638 39.0453 23.947 39.1773 23.9604C39.3112 23.9741 39.4624 24.0614 39.7648 24.236L42.0738 25.5691Z" fill="#12282F"/>
</svg>
